<?xml version="1.0" encoding="utf-8"?>
<!-- Generator: Adobe Illustrator 16.0.0, SVG Export Plug-In . SVG Version: 6.00 Build 0)  -->
<!DOCTYPE svg PUBLIC "-//W3C//DTD SVG 1.1//EN" "http://www.w3.org/Graphics/SVG/1.1/DTD/svg11.dtd">
<svg version="1.1" id="Layer_1" xmlns="http://www.w3.org/2000/svg" xmlns:xlink="http://www.w3.org/1999/xlink" x="0px" y="0px"
	 width="2340px" height="1560px" viewBox="0 0 2340 1560" enable-background="new 0 0 2340 1560" xml:space="preserve">
<g>
	<path fill="#294988" d="M847.54,985.104c3.922,0,5.743,4.202,5.743,8.125c0,4.342-2.101,8.264-5.743,8.264h-20.451v80.264
		c0,3.782-4.623,5.743-9.105,5.743c-4.623,0-9.105-1.961-9.105-5.743v-80.264h-20.591c-3.642,0-5.743-3.781-5.743-8.264
		c0-3.923,1.821-8.125,5.743-8.125H847.54z"/>
	<path fill="#294988" d="M881.44,1029.088h21.292c3.642,0,5.743,3.502,5.743,7.283c0,3.222-1.821,7.004-5.743,7.004H881.44v28.155
		h39.642c3.642,0,5.743,3.782,5.743,8.124c0,3.782-1.821,7.845-5.743,7.845h-49.867c-4.062,0-7.984-1.961-7.984-5.743v-90.909
		c0-3.782,3.922-5.743,7.984-5.743h49.867c3.922,0,5.743,4.063,5.743,7.845c0,4.342-2.101,8.124-5.743,8.124H881.44V1029.088z"/>
	<path fill="#294988" d="M968.29,1001.072c-9.385,0-14.708,5.183-14.708,16.108v39.081c0,10.927,5.323,16.109,14.988,16.109
		c12.747,0,13.867-9.105,14.288-14.988c0.28-4.343,4.202-5.743,8.965-5.743c6.303,0,9.245,1.821,9.245,8.965
		c0,16.949-13.868,27.735-33.478,27.735c-17.65,0-32.218-8.686-32.218-32.078v-39.081c0-23.393,14.708-32.077,32.358-32.077
		c19.47,0,33.338,10.366,33.338,26.614c0,7.284-2.942,8.965-9.105,8.965c-5.183,0-8.965-1.54-9.105-5.743
		C982.577,1010.598,981.597,1001.072,968.29,1001.072z"/>
	<path fill="#294988" d="M1063.121,1041.555h-31.517v40.201c0,3.782-4.623,5.743-9.105,5.743c-4.623,0-9.105-1.961-9.105-5.743
		v-91.049c0-3.923,4.482-5.604,9.105-5.604c4.482,0,9.105,1.681,9.105,5.604v36.56h31.517v-36.56c0-3.923,4.482-5.604,9.105-5.604
		c4.482,0,9.105,1.681,9.105,5.604v91.049c0,3.782-4.623,5.743-9.105,5.743c-4.623,0-9.105-1.961-9.105-5.743V1041.555z"/>
	<path fill="#294988" d="M1146.467,1081.756l-30.116-56.311v56.311c0,3.782-4.623,5.743-9.105,5.743
		c-4.623,0-9.105-1.961-9.105-5.743v-90.909c0-3.922,4.482-5.743,9.105-5.743c6.583,0,9.245,1.401,13.587,9.665l27.035,52.249
		v-56.311c0-3.923,4.482-5.604,9.105-5.604c4.482,0,9.105,1.681,9.105,5.604v91.049c0,3.782-4.623,5.743-9.105,5.743
		C1152.63,1087.499,1148.848,1086.099,1146.467,1081.756z"/>
	<path fill="#294988" d="M1181.768,1056.262v-39.081c0-23.393,14.287-32.077,32.777-32.077s32.918,8.685,32.918,32.077v39.081
		c0,23.393-14.428,32.078-32.918,32.078S1181.768,1079.654,1181.768,1056.262z M1229.253,1017.181
		c0-11.065-5.603-16.108-14.708-16.108c-9.245,0-14.567,5.043-14.567,16.108v39.081c0,11.066,5.322,16.109,14.567,16.109
		c9.105,0,14.708-5.043,14.708-16.109V1017.181z"/>
	<path fill="#294988" d="M1270.996,1087.499c-4.063,0-7.984-1.961-7.984-5.743v-91.049c0-3.923,4.482-5.604,9.105-5.604
		c4.482,0,9.104,1.681,9.104,5.604v80.823h34.179c3.642,0,5.463,3.922,5.463,7.984c0,3.922-1.821,7.984-5.463,7.984H1270.996z"/>
	<path fill="#294988" d="M1328.009,1056.262v-39.081c0-23.393,14.287-32.077,32.777-32.077s32.918,8.685,32.918,32.077v39.081
		c0,23.393-14.428,32.078-32.918,32.078S1328.009,1079.654,1328.009,1056.262z M1375.494,1017.181
		c0-11.065-5.603-16.108-14.708-16.108c-9.245,0-14.567,5.043-14.567,16.108v39.081c0,11.066,5.322,16.109,14.567,16.109
		c9.105,0,14.708-5.043,14.708-16.109V1017.181z"/>
	<path fill="#294988" d="M1441.051,1001.072c-9.386,0-14.708,5.183-14.708,16.108v39.081c0,10.927,5.322,16.109,14.567,16.109
		c9.105,0,14.708-5.183,14.708-16.109v-8.264h-11.346c-3.643,0-5.604-3.502-5.604-7.145c0-3.502,1.961-7.144,5.604-7.144h23.813
		c3.642,0,5.743,2.802,5.743,5.883v16.669c0,23.393-14.428,32.078-32.918,32.078s-32.777-8.686-32.777-32.078v-39.081
		c0-23.393,14.428-32.077,32.217-32.077c19.331,0,33.479,10.086,33.479,26.895c0,7.004-3.082,8.685-9.105,8.685
		c-4.902,0-8.965-1.4-9.104-5.743C1455.198,1008.356,1452.957,1001.072,1441.051,1001.072z"/>
	<path fill="#294988" d="M1509.829,1046.457c0-0.7-0.14-1.401-0.42-1.821l-28.996-50.147c-0.28-0.7-0.42-1.4-0.42-1.82
		c0-4.482,7.144-7.564,12.047-7.564c2.941,0,4.342,1.121,5.603,3.643l21.292,40.481l21.431-40.481
		c1.261-2.382,2.521-3.643,5.464-3.643c4.902,0,12.046,3.082,12.046,7.564c0,0.42,0,1.12-0.42,1.82l-28.855,50.147
		c-0.28,0.42-0.561,1.121-0.561,1.821v35.299c0,3.782-4.482,5.743-9.104,5.743c-4.482,0-9.105-1.961-9.105-5.743V1046.457z"/>
</g>
<g>
	<path fill="#828384" d="M826.021,1150.998c0-6.779-14.508-4.7-14.508-15.412c0-6.734,5.785-9.039,10.982-9.039
		c2.667,0,8.587,0.633,8.587,3.615c0,1.04-0.723,3.119-2.35,3.119c-1.401,0-2.44-1.718-6.237-1.718c-3.254,0-5.107,1.311-5.107,3.48
		c0,5.604,14.508,3.661,14.508,15.366c0,6.464-4.52,9.809-10.757,9.809c-5.92,0-10.44-2.983-10.44-5.604
		c0-1.266,1.175-3.164,2.576-3.164c1.853,0,3.073,3.48,7.683,3.48C823.671,1154.931,826.021,1153.71,826.021,1150.998z"/>
	<path fill="#828384" d="M865.621,1159.812c-1.311,0-2.576-0.633-2.576-1.854v-29.377c0-1.266,1.446-1.809,2.938-1.809
		c1.446,0,2.938,0.543,2.938,1.809v26.078h11.028c1.175,0,1.763,1.266,1.763,2.576c0,1.266-0.587,2.576-1.763,2.576H865.621z"/>
	<path fill="#828384" d="M911.684,1149.732v-12.609c0-7.548,4.61-10.351,10.576-10.351s10.621,2.803,10.621,10.351v12.609
		c0,7.548-4.655,10.351-10.621,10.351S911.684,1157.28,911.684,1149.732z M927.005,1137.123c0-3.57-1.808-5.198-4.746-5.198
		c-2.983,0-4.701,1.628-4.701,5.198v12.609c0,3.57,1.718,5.198,4.701,5.198c2.938,0,4.746-1.628,4.746-5.198V1137.123z"/>
	<path fill="#828384" d="M975.283,1131.925c-3.028,0-4.746,1.673-4.746,5.198v12.609c0,3.525,1.718,5.198,4.701,5.198
		c2.938,0,4.746-1.673,4.746-5.198v-2.666h-3.661c-1.175,0-1.808-1.13-1.808-2.306c0-1.13,0.633-2.305,1.808-2.305h7.684
		c1.175,0,1.853,0.904,1.853,1.898v5.378c0,7.548-4.655,10.351-10.621,10.351s-10.576-2.803-10.576-10.351v-12.609
		c0-7.548,4.655-10.351,10.396-10.351c6.237,0,10.802,3.255,10.802,8.678c0,2.26-0.994,2.803-2.938,2.803
		c-1.582,0-2.893-0.452-2.938-1.854C979.848,1134.275,979.125,1131.925,975.283,1131.925z"/>
	<path fill="#828384" d="M1015.335,1157.371c0-0.091,0.045-0.271,0.09-0.452l8.723-28.429c0.407-1.355,2.079-1.988,3.751-1.988
		c1.718,0,3.39,0.633,3.797,1.988l8.723,28.429c0.045,0.181,0.09,0.316,0.09,0.452c0,1.401-2.124,2.44-3.706,2.44
		c-0.994,0-1.763-0.316-1.988-1.175l-1.718-6.012h-10.35l-1.717,6.012c-0.226,0.858-0.994,1.175-1.989,1.175
		C1017.46,1159.812,1015.335,1158.817,1015.335,1157.371z M1031.832,1148.016l-3.932-13.876l-3.932,13.876H1031.832z"/>
	<path fill="#828384" d="M1086.347,1157.958l-9.717-18.169v18.169c0,1.221-1.492,1.854-2.938,1.854
		c-1.491,0-2.938-0.633-2.938-1.854v-29.332c0-1.266,1.446-1.854,2.938-1.854c2.125,0,2.983,0.452,4.384,3.119l8.723,16.858v-18.169
		c0-1.266,1.446-1.809,2.938-1.809c1.446,0,2.938,0.543,2.938,1.809v29.377c0,1.221-1.492,1.854-2.938,1.854
		C1088.336,1159.812,1087.115,1159.359,1086.347,1157.958z"/>
	<path fill="#828384" d="M1144.524,1131.925c-3.028,0-4.746,1.673-4.746,5.198v12.609c0,3.525,1.718,5.198,4.701,5.198
		c2.938,0,4.746-1.673,4.746-5.198v-2.666h-3.661c-1.175,0-1.808-1.13-1.808-2.306c0-1.13,0.633-2.305,1.808-2.305h7.684
		c1.175,0,1.853,0.904,1.853,1.898v5.378c0,7.548-4.655,10.351-10.621,10.351s-10.576-2.803-10.576-10.351v-12.609
		c0-7.548,4.655-10.351,10.396-10.351c6.237,0,10.802,3.255,10.802,8.678c0,2.26-0.994,2.803-2.938,2.803
		c-1.582,0-2.893-0.452-2.938-1.854C1149.089,1134.275,1148.366,1131.925,1144.524,1131.925z"/>
	<path fill="#828384" d="M1186.521,1149.732v-12.609c0-7.548,4.609-10.351,10.575-10.351c5.967,0,10.622,2.803,10.622,10.351v12.609
		c0,7.548-4.655,10.351-10.622,10.351C1191.13,1160.083,1186.521,1157.28,1186.521,1149.732z M1201.842,1137.123
		c0-3.57-1.808-5.198-4.746-5.198c-2.982,0-4.7,1.628-4.7,5.198v12.609c0,3.57,1.718,5.198,4.7,5.198
		c2.938,0,4.746-1.628,4.746-5.198V1137.123z"/>
	<path fill="#828384" d="M1245.735,1140.965h6.87c1.176,0,1.854,1.13,1.854,2.35c0,1.04-0.588,2.26-1.854,2.26h-6.87v9.085h12.791
		c1.175,0,1.854,1.221,1.854,2.621c0,1.221-0.588,2.531-1.854,2.531h-16.09c-1.311,0-2.576-0.633-2.576-1.854v-29.332
		c0-1.221,1.266-1.854,2.576-1.854h16.09c1.266,0,1.854,1.312,1.854,2.531c0,1.401-0.679,2.621-1.854,2.621h-12.791V1140.965z"/>
	<path fill="#828384" d="M1304.635,1150.998c0-6.779-14.508-4.7-14.508-15.412c0-6.734,5.785-9.039,10.982-9.039
		c2.667,0,8.588,0.633,8.588,3.615c0,1.04-0.724,3.119-2.351,3.119c-1.401,0-2.44-1.718-6.237-1.718
		c-3.254,0-5.107,1.311-5.107,3.48c0,5.604,14.509,3.661,14.509,15.366c0,6.464-4.52,9.809-10.757,9.809
		c-5.921,0-10.44-2.983-10.44-5.604c0-1.266,1.175-3.164,2.576-3.164c1.853,0,3.073,3.48,7.684,3.48
		C1302.284,1154.931,1304.635,1153.71,1304.635,1150.998z"/>
	<path fill="#828384" d="M1366.744,1144.987h-10.17v12.971c0,1.221-1.491,1.854-2.938,1.854c-1.491,0-2.938-0.633-2.938-1.854
		v-29.377c0-1.266,1.446-1.809,2.938-1.809c1.446,0,2.938,0.543,2.938,1.809v11.796h10.17v-11.796c0-1.266,1.446-1.809,2.938-1.809
		c1.446,0,2.938,0.543,2.938,1.809v29.377c0,1.221-1.491,1.854-2.938,1.854c-1.491,0-2.938-0.633-2.938-1.854V1144.987z"/>
	<path fill="#828384" d="M1411.044,1140.965h6.87c1.176,0,1.854,1.13,1.854,2.35c0,1.04-0.588,2.26-1.854,2.26h-6.87v9.085h12.791
		c1.175,0,1.854,1.221,1.854,2.621c0,1.221-0.588,2.531-1.854,2.531h-16.09c-1.311,0-2.576-0.633-2.576-1.854v-29.332
		c0-1.221,1.266-1.854,2.576-1.854h16.09c1.266,0,1.854,1.312,1.854,2.531c0,1.401-0.679,2.621-1.854,2.621h-12.791V1140.965z"/>
	<path fill="#828384" d="M1456.249,1128.581c0-0.949,0.769-1.809,1.898-1.809h8.948c5.921,0,10.712,2.26,10.712,9.446
		c0,5.198-2.531,8-5.921,9.039l5.921,10.983c0.181,0.226,0.226,0.542,0.226,0.723c0,1.492-1.943,3.073-3.66,3.073
		c-0.813,0-1.582-0.497-2.034-1.4l-6.418-12.475h-3.797v11.796c0,1.221-1.446,1.854-2.938,1.854c-1.446,0-2.938-0.633-2.938-1.854
		V1128.581z M1462.124,1131.925v9.627h4.972c2.938,0,4.836-1.22,4.836-4.79c0-3.571-1.897-4.837-4.836-4.837H1462.124z"/>
	<path fill="#828384" d="M1515.012,1140.965h6.87c1.175,0,1.854,1.13,1.854,2.35c0,1.04-0.588,2.26-1.854,2.26h-6.87v9.085h12.791
		c1.175,0,1.854,1.221,1.854,2.621c0,1.221-0.588,2.531-1.854,2.531h-16.09c-1.311,0-2.576-0.633-2.576-1.854v-29.332
		c0-1.221,1.266-1.854,2.576-1.854h16.09c1.266,0,1.854,1.312,1.854,2.531c0,1.401-0.679,2.621-1.854,2.621h-12.791V1140.965z"/>
</g>
<g>
	<linearGradient id="SVGID_1_" gradientUnits="userSpaceOnUse" x1="1196.5732" y1="406.3218" x2="862.4559" y2="740.4391">
		<stop  offset="0" style="stop-color:#3CA5DD"/>
		<stop  offset="0.9946" style="stop-color:#263578"/>
	</linearGradient>
	<path fill="url(#SVGID_1_)" d="M998.945,589.276c0,8.089,6.583,14.671,14.673,14.673c8.09,0,14.673-6.584,14.673-14.677
		c0.002-3.916-1.525-7.6-4.296-10.371c-2.771-2.773-6.458-4.298-10.38-4.298C1005.529,574.603,998.946,581.183,998.945,589.276z"/>
	<linearGradient id="SVGID_2_" gradientUnits="userSpaceOnUse" x1="1272.1611" y1="481.9102" x2="938.0447" y2="816.0266">
		<stop  offset="0" style="stop-color:#3CA5DD"/>
		<stop  offset="0.9946" style="stop-color:#263578"/>
	</linearGradient>
	<path fill="url(#SVGID_2_)" d="M1047.197,692.195c0.001,3.921,1.526,7.607,4.298,10.379c2.771,2.771,6.454,4.294,10.373,4.296
		h0.008c8.088,0,14.666-6.581,14.666-14.671c0-8.092-6.582-14.673-14.67-14.676C1053.784,677.527,1047.2,684.108,1047.197,692.195z"
		/>
	<linearGradient id="SVGID_3_" gradientUnits="userSpaceOnUse" x1="1310.5244" y1="520.2734" x2="976.4075" y2="854.3903">
		<stop  offset="0" style="stop-color:#3CA5DD"/>
		<stop  offset="0.9946" style="stop-color:#263578"/>
	</linearGradient>
	<path fill="url(#SVGID_3_)" d="M1373.036,693.168l-65.001,65.001c3.437,6.063,5.296,12.926,5.295,20.082
		c0.001,10.92-4.251,21.189-11.974,28.912c-7.722,7.721-17.988,11.975-28.906,11.975c-22.546-0.002-40.886-18.343-40.886-40.886
		c0-22.542,18.34-40.881,40.881-40.881c5.609,0,11.04,1.139,16.049,3.278l93.705-93.706c5.108-5.122,5.107-13.408-0.009-18.524
		c-5.108-5.113-13.391-5.115-18.51-0.019l-64.236,64.236c-2.558,2.56-5.913,3.839-9.268,3.839c-3.351,0-6.707-1.279-9.267-3.839
		c-5.117-5.119-5.115-13.417,0.001-18.532l100.988-100.991c5.119-5.117,5.119-13.413,0.003-18.53
		c-5.116-5.119-13.419-5.122-18.535,0l-102.988,102.985c2.762,5.567,4.258,11.721,4.256,18.114
		c0.003,10.921-4.249,21.188-11.971,28.91c-7.722,7.721-17.991,11.977-28.908,11.977c-22.544,0-40.885-18.342-40.886-40.889
		c0.001-22.54,18.342-40.879,40.881-40.881c6.384,0.002,12.526,1.493,18.085,4.243l157.763-157.762
		c5.097-5.118,5.088-13.396-0.019-18.5c-5.12-5.121-13.417-5.123-18.537,0l-130.917,130.916c-2.556,2.56-5.914,3.841-9.269,3.837
		c-3.354,0.002-6.708-1.278-9.263-3.837c-5.121-5.118-5.121-13.415,0-18.532l81.888-81.89c5.118-5.117,5.118-13.415,0-18.532
		c-5.11-5.111-13.393-5.117-18.513-0.019l-197.476,197.479c3.333,5.918,5.26,12.734,5.26,20c0,22.539-18.338,40.881-40.878,40.881
		h-0.008c0-0.002,0-0.002,0,0c-10.919-0.002-21.187-4.253-28.906-11.976c-7.722-7.721-11.975-17.99-11.975-28.911
		c0.004-22.542,18.345-40.879,40.885-40.879c5.721,0,11.166,1.19,16.115,3.323l169.748-169.752
		c5.119-5.117,5.119-13.412,0.002-18.531c-5.109-5.113-13.387-5.117-18.507-0.024l-109.501,109.502
		c-2.557,2.562-5.912,3.841-9.266,3.841c-3.356-0.004-6.712-1.282-9.27-3.841c-5.117-5.115-5.116-13.413,0.002-18.532
		l145.454-145.457c5.12-5.119,5.12-13.415,0.004-18.532c-5.118-5.12-13.417-5.12-18.535,0l-177.862,177.864
		c2.754,5.563,4.248,11.709,4.247,18.098c0,22.542-18.341,40.884-40.884,40.884c-22.542-0.003-40.881-18.34-40.881-40.884
		c0-10.919,4.251-21.185,11.972-28.907c7.722-7.726,17.99-11.978,28.913-11.978c6.389,0,12.536,1.493,18.1,4.25l126.776-126.777
		c5.107-5.115,5.105-13.408-0.01-18.519c-5.116-5.117-13.417-5.117-18.533,0l-86.023,86.025l-87.081,50.276
		c-16.646,9.612-30.266,33.201-30.266,52.421v173.946c0,19.221,13.619,42.81,30.266,52.421l150.641,86.973
		c16.646,9.611,43.885,9.611,60.531,0l150.641-86.973c16.646-9.611,30.264-33.2,30.264-52.421V744.34l32.632-32.632
		c5.12-5.117,5.12-13.412,0-18.532C1386.449,688.062,1378.154,688.062,1373.036,693.168z"/>
	<linearGradient id="SVGID_4_" gradientUnits="userSpaceOnUse" x1="1344.8477" y1="554.5923" x2="1010.7261" y2="888.7138">
		<stop  offset="0" style="stop-color:#3CA5DD"/>
		<stop  offset="0.9946" style="stop-color:#263578"/>
	</linearGradient>
	<path fill="url(#SVGID_4_)" d="M1209.082,675.681c0,8.093,6.58,14.673,14.67,14.673c3.922,0.002,7.606-1.525,10.376-4.298
		c2.772-2.768,4.298-6.452,4.297-10.375c0.001-3.92-1.525-7.604-4.297-10.375c-2.771-2.769-6.456-4.296-10.376-4.296
		C1215.662,661.01,1209.082,667.589,1209.082,675.681z"/>
	<linearGradient id="SVGID_5_" gradientUnits="userSpaceOnUse" x1="1420.4785" y1="630.2261" x2="1086.3623" y2="964.3422">
		<stop  offset="0" style="stop-color:#3CA5DD"/>
		<stop  offset="0.9946" style="stop-color:#263578"/>
	</linearGradient>
	<path fill="url(#SVGID_5_)" d="M1257.775,778.25c0,8.09,6.582,14.675,14.675,14.675c3.917,0,7.602-1.527,10.374-4.301
		c2.77-2.768,4.297-6.451,4.295-10.375c0.002-3.918-1.525-7.602-4.295-10.375c-2.772-2.769-6.457-4.296-10.379-4.296
		C1264.357,763.579,1257.775,770.16,1257.775,778.25z"/>
</g>
</svg>
